<svg width="117" height="177" viewBox="0 0 117 177" fill="none" xmlns="http://www.w3.org/2000/svg">
<g opacity="0.8" clip-path="url(#clip0_2249_2828)">
<path d="M66.2476 18.9636C65.2391 19.5459 64.0456 19.2254 63.4627 18.2158C62.8798 17.2062 63.1991 16.0123 64.2075 15.4301C65.216 14.8478 66.4096 15.1683 66.9925 16.1779C67.5753 17.1875 67.1721 18.4299 66.2476 18.9636Z" fill="#FFCF2D"/>
<path d="M74.9422 34.0232C73.9337 34.6054 72.7402 34.2849 72.1573 33.2754C71.5744 32.2658 71.8936 31.0719 72.9021 30.4896C73.9106 29.9074 75.1042 30.2279 75.687 31.2375C76.2213 32.1629 75.8667 33.4894 74.9422 34.0232Z" fill="#FFCF2D"/>
<path d="M83.5882 48.9988C82.5797 49.581 81.3862 49.2605 80.8033 48.2509C80.2204 47.2414 80.5396 46.0475 81.5481 45.4652C82.5566 44.883 83.7501 45.2035 84.333 46.213C84.9159 47.2226 84.5127 48.465 83.5882 48.9988Z" fill="#FFCF2D"/>
<path d="M92.2828 64.0574C91.2743 64.6396 90.0808 64.3191 89.4979 63.3095C88.915 62.3 89.2342 61.1061 90.2427 60.5238C91.2512 59.9416 92.4447 60.2621 93.0276 61.2716C93.6105 62.2812 93.2072 63.5236 92.2828 64.0574Z" fill="#FFCF2D"/>
<path d="M100.978 79.1169C99.9691 79.6992 98.7756 79.3787 98.1927 78.3691C97.6098 77.3595 97.929 76.1657 98.9375 75.5834C99.946 75.0011 101.14 75.3216 101.722 76.3312C102.257 77.2567 101.902 78.5832 100.978 79.1169Z" fill="#FFCF2D"/>
<path d="M109.672 94.1765C108.664 94.7587 107.47 94.4383 106.887 93.4287C106.304 92.4191 106.624 91.2252 107.632 90.643C108.641 90.0607 109.834 90.3812 110.417 91.3908C111 92.4004 110.597 93.6428 109.672 94.1765Z" fill="#FFCF2D"/>
<path d="M118.318 109.152C117.31 109.734 116.116 109.414 115.533 108.404C114.95 107.395 115.27 106.201 116.278 105.619C117.287 105.036 118.48 105.357 119.063 106.366C119.646 107.376 119.243 108.618 118.318 109.152Z" fill="#FFCF2D"/>
<path d="M53.7257 26.1931C52.7172 26.7754 51.5236 26.4549 50.9407 25.4453C50.3579 24.4357 50.6771 23.2418 51.6856 22.6596C52.6941 22.0773 53.8876 22.3978 54.4705 23.4074C55.0534 24.417 54.7341 25.6108 53.7257 26.1931Z" fill="#FFCF2D"/>
<path d="M62.4202 41.2527C61.4117 41.8349 60.2182 41.5144 59.6353 40.5049C59.0524 39.4953 59.3717 38.3014 60.3802 37.7191C61.3886 37.1369 62.5822 37.4574 63.1651 38.467C63.6994 39.3924 63.4287 40.6704 62.4202 41.2527Z" fill="#FFCF2D"/>
<path d="M71.0662 56.2283C70.0577 56.8105 68.8642 56.49 68.2813 55.4804C67.6984 54.4709 68.0177 53.277 69.0261 52.6947C70.0346 52.1125 71.2282 52.433 71.8111 53.4425C72.3939 54.4521 72.0747 55.646 71.0662 56.2283Z" fill="#FFCF2D"/>
<path d="M79.7608 71.2878C78.7523 71.8701 77.5588 71.5496 76.9759 70.54C76.393 69.5304 76.7122 68.3366 77.7207 67.7543C78.7292 67.172 79.9228 67.4925 80.5056 68.5021C81.0885 69.5117 80.7693 70.7056 79.7608 71.2878Z" fill="#FFCF2D"/>
<path d="M88.4556 86.3474C87.4471 86.9296 86.2536 86.6092 85.6707 85.5996C85.0878 84.59 85.4071 83.3961 86.4156 82.8139C87.424 82.2316 88.6176 82.5521 89.2005 83.5617C89.7348 84.4871 89.4641 85.7651 88.4556 86.3474Z" fill="#FFCF2D"/>
<path d="M97.1502 101.407C96.1417 101.989 94.9482 101.669 94.3653 100.659C93.7824 99.6496 94.1016 98.4557 95.1101 97.8734C96.1186 97.2912 97.3122 97.6117 97.895 98.6213C98.4779 99.6308 98.1587 100.825 97.1502 101.407Z" fill="#FFCF2D"/>
<path d="M105.796 116.382C104.788 116.964 103.594 116.643 103.011 115.634C102.428 114.624 102.748 113.43 103.756 112.848C104.765 112.266 105.958 112.586 106.541 113.596C107.124 114.605 106.805 115.799 105.796 116.382Z" fill="#FFCF2D"/>
<path d="M114.491 131.441C113.482 132.023 112.289 131.703 111.706 130.693C111.123 129.684 111.442 128.49 112.451 127.908C113.459 127.325 114.653 127.646 115.236 128.655C115.818 129.665 115.499 130.859 114.491 131.441Z" fill="#FFCF2D"/>
<path d="M91.2078 4.55247C90.1993 5.13473 89.0058 4.81423 88.4229 3.80465C87.84 2.79508 88.1593 1.6012 89.1678 1.01895C90.1762 0.436691 91.3698 0.757184 91.9527 1.76676C92.5355 2.77634 92.2163 3.97022 91.2078 4.55247Z" fill="#FFCF2D"/>
<path d="M99.9024 19.612C98.8939 20.1943 97.7004 19.8738 97.1175 18.8642C96.5346 17.8546 96.8538 16.6608 97.8623 16.0785C98.8708 15.4963 100.064 15.8168 100.647 16.8263C101.182 17.7518 100.911 19.0298 99.9024 19.612Z" fill="#FFCF2D"/>
<path d="M108.549 34.5876C107.54 35.1699 106.347 34.8494 105.764 33.8398C105.181 32.8302 105.5 31.6364 106.509 31.0541C107.517 30.4718 108.759 30.8765 109.293 31.8019C109.876 32.8115 109.557 34.0054 108.549 34.5876Z" fill="#FFCF2D"/>
<path d="M117.243 49.6472C116.235 50.2295 115.041 49.909 114.458 48.8994C113.875 47.8898 114.195 46.6959 115.203 46.1137C116.212 45.5314 117.454 45.936 117.988 46.8615C118.522 47.7869 118.252 49.0649 117.243 49.6472Z" fill="#FFCF2D"/>
<path d="M78.6856 11.782C77.6771 12.3642 76.4836 12.0437 75.9007 11.0341C75.3178 10.0246 75.7211 8.78217 76.6455 8.24844C77.654 7.66618 78.8476 7.98668 79.4304 8.99625C80.0133 10.0058 79.6941 11.1997 78.6856 11.782Z" fill="#FFCF2D"/>
<path d="M87.3802 26.8415C86.3717 27.4238 85.1782 27.1033 84.5953 26.0937C84.0124 25.0841 84.3316 23.8903 85.3401 23.308C86.3486 22.7258 87.5421 23.0462 88.125 24.0558C88.6593 24.9813 88.3887 26.2593 87.3802 26.8415Z" fill="#FFCF2D"/>
<path d="M96.0264 41.8171C95.0179 42.3994 93.8244 42.0789 93.2415 41.0693C92.6586 40.0597 92.9779 38.8658 93.9864 38.2836C94.9948 37.7013 96.1884 38.0218 96.7713 39.0314C97.3541 40.041 97.0349 41.2349 96.0264 41.8171Z" fill="#FFCF2D"/>
<path d="M104.721 56.8767C103.713 57.4589 102.519 57.1385 101.936 56.1289C101.353 55.1193 101.672 53.9254 102.681 53.3432C103.689 52.7609 104.883 53.0814 105.466 54.091C106.049 55.1006 105.73 56.2944 104.721 56.8767Z" fill="#FFCF2D"/>
<path d="M113.416 71.9363C112.407 72.5185 111.214 72.198 110.631 71.1884C110.048 70.1789 110.367 68.985 111.376 68.4027C112.384 67.8205 113.578 68.141 114.16 69.1505C114.695 70.076 114.424 71.354 113.416 71.9363Z" fill="#FFCF2D"/>
<path d="M41.2872 33.3738C40.2787 33.956 39.0851 33.6355 38.5023 32.6259C37.9194 31.6164 38.2386 30.4225 39.2471 29.8402C40.2556 29.258 41.4491 29.5785 42.032 30.5881C42.6149 31.5976 42.2116 32.84 41.2872 33.3738Z" fill="#FFCF2D"/>
<path d="M49.982 48.4333C48.9735 49.0156 47.78 48.6951 47.1971 47.6855C46.6142 46.6759 46.9334 45.4821 47.9419 44.8998C48.9504 44.3176 50.1439 44.638 50.7268 45.6476C51.2611 46.5731 50.9065 47.8996 49.982 48.4333Z" fill="#FFCF2D"/>
<path d="M58.628 63.4089C57.6195 63.9912 56.426 63.6707 55.8431 62.6611C55.2602 61.6515 55.5794 60.4576 56.5879 59.8754C57.5964 59.2931 58.7899 59.6136 59.3728 60.6232C59.9557 61.6328 59.5525 62.8752 58.628 63.4089Z" fill="#FFCF2D"/>
<path d="M67.3226 78.4685C66.3141 79.0507 65.1205 78.7303 64.5377 77.7207C63.9548 76.7111 64.274 75.5172 65.2825 74.935C66.291 74.3527 67.4845 74.6732 68.0674 75.6828C68.6503 76.6924 68.247 77.9348 67.3226 78.4685Z" fill="#FFCF2D"/>
<path d="M76.0172 93.5281C75.0087 94.1103 73.8151 93.7898 73.2322 92.7802C72.6494 91.7707 72.9686 90.5768 73.9771 89.9945C74.9856 89.4123 76.1791 89.7328 76.762 90.7423C77.2963 91.6678 76.9416 92.9943 76.0172 93.5281Z" fill="#FFCF2D"/>
<path d="M84.712 108.588C83.7035 109.17 82.51 108.849 81.9271 107.84C81.3442 106.83 81.6634 105.636 82.6719 105.054C83.6804 104.472 84.8739 104.792 85.4568 105.802C86.0397 106.811 85.6364 108.054 84.712 108.588Z" fill="#FFCF2D"/>
<path d="M93.358 123.563C92.3495 124.145 91.156 123.825 90.5731 122.815C89.9902 121.806 90.3094 120.612 91.3179 120.03C92.3264 119.447 93.5199 119.768 94.1028 120.778C94.6857 121.787 94.2824 123.029 93.358 123.563Z" fill="#FFCF2D"/>
<path d="M102.053 138.623C101.044 139.205 99.8505 138.885 99.2676 137.875C98.6848 136.865 99.004 135.672 100.012 135.089C101.021 134.507 102.215 134.827 102.797 135.837C103.38 136.847 102.977 138.089 102.053 138.623Z" fill="#FFCF2D"/>
<path d="M110.747 153.682C109.739 154.265 108.545 153.944 107.962 152.935C107.379 151.925 107.699 150.731 108.707 150.149C109.716 149.567 110.909 149.887 111.492 150.897C112.026 151.822 111.672 153.149 110.747 153.682Z" fill="#FFCF2D"/>
<path d="M28.7652 40.6033C27.7567 41.1855 26.5632 40.865 25.9803 39.8554C25.3974 38.8459 25.7166 37.652 26.7251 37.0697C27.7336 36.4875 28.9272 36.808 29.51 37.8175C30.0929 38.8271 29.7737 40.021 28.7652 40.6033Z" fill="#FFCF2D"/>
<path d="M37.46 55.6628C36.4515 56.2451 35.258 55.9246 34.6751 54.915C34.0922 53.9054 34.4115 52.7116 35.4199 52.1293C36.4284 51.547 37.622 51.8675 38.2049 52.8771C38.7392 53.8026 38.4685 55.0806 37.46 55.6628Z" fill="#FFCF2D"/>
<path d="M46.106 70.6384C45.0975 71.2207 43.904 70.9002 43.3211 69.8906C42.7382 68.881 43.0574 67.6871 44.0659 67.1049C45.0744 66.5226 46.268 66.8431 46.8509 67.8527C47.4337 68.8623 47.1145 70.0562 46.106 70.6384Z" fill="#FFCF2D"/>
<path d="M52.0157 84.9502C52.5791 85.9259 53.8259 86.2607 54.8006 85.698C55.7753 85.1352 56.1088 83.888 55.5454 82.9123C54.9821 81.9365 53.7352 81.6017 52.7605 82.1645C51.7858 82.7272 51.4523 83.9744 52.0157 84.9502Z" fill="#FFCF2D"/>
<path d="M63.4952 100.758C62.4867 101.34 61.2932 101.019 60.7103 100.01C60.1274 99.0002 60.4466 97.8063 61.4551 97.224C62.4636 96.6418 63.6571 96.9623 64.24 97.9718C64.7743 98.8973 64.5037 100.175 63.4952 100.758Z" fill="#FFCF2D"/>
<path d="M72.19 115.817C71.1815 116.399 69.988 116.079 69.4051 115.069C68.8222 114.06 69.1414 112.866 70.1499 112.284C71.1584 111.701 72.352 112.022 72.9348 113.031C73.5177 114.041 73.1985 115.235 72.19 115.817Z" fill="#FFCF2D"/>
<path d="M80.836 130.793C79.8275 131.375 78.634 131.054 78.0511 130.045C77.4682 129.035 77.7874 127.841 78.7959 127.259C79.8044 126.677 80.998 126.997 81.5808 128.007C82.1637 129.017 81.8445 130.21 80.836 130.793Z" fill="#FFCF2D"/>
<path d="M86.7457 145.104C87.309 146.08 88.5559 146.415 89.5306 145.852C90.5053 145.29 90.8388 144.042 90.2754 143.067C89.7121 142.091 88.4652 141.756 87.4905 142.319C86.5158 142.881 86.1823 144.129 86.7457 145.104Z" fill="#FFCF2D"/>
<path d="M98.2252 160.912C97.2167 161.494 96.0231 161.174 95.4403 160.164C94.8574 159.154 95.1766 157.961 96.1851 157.378C97.1936 156.796 98.3871 157.117 98.97 158.126C99.5043 159.052 99.2337 160.33 98.2252 160.912Z" fill="#FFCF2D"/>
<path d="M16.243 47.8337C15.2345 48.416 14.041 48.0955 13.4581 47.0859C12.8752 46.0763 13.1944 44.8825 14.2029 44.3002C15.2114 43.7179 16.4049 44.0384 16.9878 45.048C17.5707 46.0576 17.2515 47.2515 16.243 47.8337Z" fill="#FFCF2D"/>
<path d="M24.9376 62.8933C23.9291 63.4755 22.7355 63.1551 22.1527 62.1455C21.5698 61.1359 21.889 59.942 22.8975 59.3598C23.906 58.7775 25.0995 59.098 25.6824 60.1076C26.2167 61.033 25.9461 62.311 24.9376 62.8933Z" fill="#FFCF2D"/>
<path d="M33.5836 77.8689C32.5751 78.4511 31.3815 78.1306 30.7987 77.1211C30.2158 76.1115 30.535 74.9176 31.5435 74.3354C32.552 73.7531 33.7455 74.0736 34.3284 75.0832C34.9113 76.0927 34.5921 77.2866 33.5836 77.8689Z" fill="#FFCF2D"/>
<path d="M42.2781 92.9285C41.2696 93.5107 40.0761 93.1902 39.4932 92.1806C38.9104 91.1711 39.2296 89.9772 40.2381 89.3949C41.2466 88.8127 42.4401 89.1332 43.023 90.1427C43.6059 91.1523 43.2866 92.3462 42.2781 92.9285Z" fill="#FFCF2D"/>
<path d="M50.973 107.988C49.9645 108.57 48.7709 108.25 48.1881 107.24C47.6052 106.231 47.9244 105.037 48.9329 104.454C49.9414 103.872 51.1349 104.193 51.7178 105.202C52.2521 106.128 51.9815 107.406 50.973 107.988Z" fill="#FFCF2D"/>
<path d="M59.6675 123.048C58.659 123.63 57.4655 123.309 56.8826 122.3C56.2998 121.29 56.619 120.096 57.6275 119.514C58.636 118.932 59.8295 119.252 60.4124 120.262C60.9953 121.271 60.676 122.465 59.6675 123.048Z" fill="#FFCF2D"/>
<path d="M68.3135 138.022C67.305 138.604 66.1115 138.284 65.5286 137.274C64.9458 136.265 65.265 135.071 66.2735 134.489C67.282 133.906 68.4755 134.227 69.0584 135.236C69.6413 136.246 69.322 137.44 68.3135 138.022Z" fill="#FFCF2D"/>
<path d="M77.0081 153.082C75.9996 153.664 74.8061 153.344 74.2232 152.334C73.6403 151.324 73.9595 150.131 74.968 149.548C75.9765 148.966 77.1701 149.286 77.7529 150.296C78.3358 151.306 78.0166 152.5 77.0081 153.082Z" fill="#FFCF2D"/>
<path d="M85.7029 168.141C84.6944 168.724 83.5009 168.403 82.918 167.394C82.3352 166.384 82.6544 165.19 83.6629 164.608C84.6714 164.026 85.8649 164.346 86.4478 165.356C86.9821 166.281 86.7114 167.559 85.7029 168.141Z" fill="#FFCF2D"/>
<path d="M3.80475 55.0144C2.79626 55.5966 1.60272 55.2762 1.01984 54.2666C0.436963 53.257 0.756175 52.0631 1.76467 51.4809C2.77317 50.8986 3.9667 51.2191 4.54958 52.2287C5.13246 53.2383 4.72921 54.4807 3.80475 55.0144Z" fill="#FFCF2D"/>
<path d="M12.4993 70.074C11.4908 70.6562 10.2973 70.3357 9.71442 69.3261C9.13154 68.3166 9.45075 67.1227 10.4593 66.5404C11.4677 65.9582 12.6613 66.2787 13.2442 67.2882C13.7785 68.2137 13.4238 69.5402 12.4993 70.074Z" fill="#FFCF2D"/>
<path d="M21.1456 85.0495C20.1371 85.6318 18.9435 85.3113 18.3607 84.3017C17.7778 83.2921 18.097 82.0983 19.1055 81.516C20.114 80.9338 21.3075 81.2543 21.8904 82.2638C22.4733 83.2734 22.07 84.5158 21.1456 85.0495Z" fill="#FFCF2D"/>
<path d="M29.8402 100.109C28.8317 100.691 27.6381 100.371 27.0552 99.3613C26.4724 98.3517 26.7916 97.1578 27.8001 96.5756C28.8086 95.9933 30.0021 96.3138 30.585 97.3234C31.1679 98.333 30.7646 99.5754 29.8402 100.109Z" fill="#FFCF2D"/>
<path d="M38.5347 115.169C37.5262 115.751 36.3327 115.43 35.7498 114.421C35.1669 113.411 35.4862 112.217 36.4947 111.635C37.5031 111.053 38.6967 111.373 39.2796 112.383C39.8139 113.308 39.4592 114.635 38.5347 115.169Z" fill="#FFCF2D"/>
<path d="M47.2293 130.228C46.2208 130.811 45.0273 130.49 44.4444 129.48C43.8615 128.471 44.1807 127.277 45.1892 126.695C46.1977 126.112 47.3913 126.433 47.9741 127.443C48.557 128.452 48.1538 129.695 47.2293 130.228Z" fill="#FFCF2D"/>
<path d="M55.8756 145.204C54.8671 145.786 53.6735 145.466 53.0906 144.456C52.5078 143.446 52.827 142.253 53.8355 141.67C54.844 141.088 56.0375 141.409 56.6204 142.418C57.2033 143.428 56.8 144.67 55.8756 145.204Z" fill="#FFCF2D"/>
<path d="M64.5701 160.263C63.5616 160.846 62.3681 160.525 61.7852 159.516C61.2023 158.506 61.5216 157.312 62.5301 156.73C63.5386 156.148 64.7321 156.468 65.315 157.478C65.8978 158.487 65.4946 159.73 64.5701 160.263Z" fill="#FFCF2D"/>
<path d="M73.2647 175.323C72.2562 175.905 71.0627 175.585 70.4798 174.575C69.8969 173.566 70.2161 172.372 71.2246 171.789C72.2331 171.207 73.4267 171.528 74.0095 172.537C74.5439 173.463 74.1892 174.789 73.2647 175.323Z" fill="#FFCF2D"/>
</g>
<defs>
<clipPath id="clip0_2249_2828">
<rect width="143" height="105" fill="white" transform="translate(90.9326) rotate(60)"/>
</clipPath>
</defs>
</svg>
